# Blender v2.78 (sub 0) OBJ File: 'linemate.blend'
# www.blender.org
mtllib linemate.mtl
o Icosphere
v 0.276388 -0.017905 0.850649
v -0.723607 -0.017905 0.525725
v -0.723607 -0.017905 -0.525725
v 0.276388 -0.017905 -0.850649
v 0.894426 -0.017909 0.000000
v 0.155213 0.534876 0.461704
v 0.688189 0.060612 0.499997
v -0.262869 0.060613 0.809012
v -0.850648 0.060611 0.000000
v -0.262869 0.060613 -0.809012
v 0.688189 0.060612 -0.089560
v 0.129274 0.959754 0.982989
v 0.525730 0.385527 0.608360
v -0.264564 0.385530 0.561613
v -0.097999 0.385530 -0.309011
v 0.162456 1.394772 -0.499995
vn 0.6489 -0.0053 0.7609
vn -0.5101 0.5194 0.6856
vn -0.4661 0.8516 -0.2398
vn -0.0403 0.2376 -0.9705
vn 0.4478 0.8459 -0.2896
vn 0.0365 0.7448 0.6663
vn 0.9254 0.3769 0.0399
vn 0.8554 0.1887 -0.4823
vn -0.9254 0.2859 0.2486
vn -0.9525 0.2718 0.1374
vn -0.3911 0.8253 -0.4073
vn -0.3485 0.9349 -0.0667
vn -0.4229 0.9026 -0.0809
vn -0.6484 0.7143 0.2634
vn -0.3915 0.7036 -0.5930
vn -0.8659 0.3002 0.4002
vn -0.0975 -0.1479 0.9842
vn 0.4894 0.6877 -0.5362
vn 0.8313 0.2501 0.4964
vn 0.8872 0.3393 0.3127
usemtl Material.001
s off
f 1//1 7//1 12//1
f 2//2 8//2 14//2
f 3//3 9//3 15//3
f 4//4 10//4 16//4
f 5//5 11//5 13//5
f 13//6 16//6 6//6
f 13//7 11//7 16//7
f 11//8 4//8 16//8
f 16//9 15//9 6//9
f 16//10 10//10 15//10
f 10//11 3//11 15//11
f 15//12 14//12 6//12
f 15//13 9//13 14//13
f 9//14 2//14 14//14
f 14//15 12//15 6//15
f 14//16 8//16 12//16
f 8//17 1//17 12//17
f 12//18 13//18 6//18
f 12//19 7//19 13//19
f 7//20 5//20 13//20
