# Blender v2.78 (sub 0) OBJ File: 'mendiane.blend'
# www.blender.org
mtllib mendiane.mtl
o Icosphere
v 0.335657 -0.028560 0.965610
v -0.793532 -0.028561 0.720664
v -0.664338 -0.028561 -0.410764
v 0.335657 -0.028560 -0.735688
v 0.953695 -0.028565 0.114961
v 0.747458 0.049956 0.614958
v -0.791379 0.049956 0.114961
v -0.203600 0.049957 -0.694050
v 0.747458 0.049956 -0.385036
v 0.584698 0.374874 0.571892
v 0.781866 0.374871 0.016528
v -0.544464 0.374874 0.140977
v -0.476791 0.374874 -0.323244
v 0.240181 0.374874 -0.544988
vn 0.5576 0.3773 0.7394
vn -0.8484 0.4536 -0.2728
vn -0.0079 0.4258 -0.9048
vn 0.8967 0.3033 -0.3223
vn 0.5670 0.6159 -0.5470
vn 0.5221 0.4623 -0.7167
vn -0.2260 0.6440 -0.7309
vn -0.5277 0.4071 -0.7455
vn -0.7865 0.6069 -0.1147
vn -0.7968 0.5995 0.0749
vn 0.8373 0.4588 0.2973
vn 0.8550 0.4336 0.2846
usemtl Material.001
s off
f 1//1 6//1 10//1
f 3//2 7//2 13//2
f 4//3 8//3 14//3
f 5//4 9//4 11//4
f 11//5 9//5 14//5
f 9//6 4//6 14//6
f 14//7 8//7 13//7
f 8//8 3//8 13//8
f 13//9 7//9 12//9
f 7//10 2//10 12//10
f 10//11 6//11 11//11
f 6//12 5//12 11//12
l 12 10
