# Blender v2.78 (sub 0) OBJ File: 'sibur.blend'
# www.blender.org
mtllib sibur.mtl
o Icosphere.001
v 0.105176 -0.040373 0.352618
v 0.373529 0.114594 0.878344
v 0.197913 0.114594 0.741862
v -0.006530 0.036456 0.352618
v 0.054871 0.370331 0.306975
v 0.465810 0.114594 0.595902
v 0.381564 1.009034 0.895663
v 0.061216 0.930892 0.878344
v 0.092500 0.930892 0.232930
v 0.381564 1.009034 0.135633
v 0.421306 1.009029 0.352618
v 0.105176 1.561814 0.352618
v 0.164195 -0.033104 0.852614
v 0.235198 -0.061519 0.661630
v 0.220395 0.270502 0.854026
v 0.482113 0.526240 0.352618
v 0.530499 0.201322 0.664966
v -0.055084 0.265257 0.352618
v 0.050218 -0.042064 0.852615
v -0.057280 0.293670 0.492439
v -0.103584 -0.042064 0.381700
v 0.368045 0.377058 0.134206
v 0.284147 0.577798 0.606262
v 0.527154 0.561814 0.043606
v 0.105176 0.561814 0.915821
v 0.274619 0.561814 0.638709
v 0.008567 0.483672 0.661631
v -0.003180 0.483672 0.829423
v -0.003180 0.483672 0.177265
v 0.058698 0.483672 0.500800
v 0.348445 0.561814 0.097288
v 0.105176 0.561814 0.275429
v 0.319655 1.087550 0.852615
v 0.321737 1.009410 0.872483
v 0.040541 1.009408 0.352618
v 0.321737 1.009410 0.097293
v 0.485761 1.087550 0.381700
v 0.267631 1.412468 0.852614
v 0.310997 1.412466 0.352618
v 0.159283 1.334326 0.661630
v 0.159283 1.334326 0.332754
v 0.267631 1.412468 0.363245
vn -0.2641 -0.9634 0.0452
vn 0.8692 -0.4602 -0.1808
vn -0.8802 -0.4615 0.1106
vn 0.8828 0.4629 -0.0802
vn 0.3155 0.4928 -0.8109
vn 0.7501 0.4365 0.4967
vn -0.6302 -0.3915 0.6705
vn -0.9935 -0.0400 0.1065
vn 0.6786 -0.3752 -0.6315
vn 0.9832 0.0707 -0.1680
vn 0.7997 0.4112 0.4374
vn -0.3754 -0.4026 0.8349
vn -0.9288 0.2314 -0.2895
vn 0.7495 -0.2946 -0.5928
vn -0.1894 -0.7527 -0.6305
vn 0.6538 0.1047 -0.7494
vn -0.1294 0.4935 0.8601
vn -0.8095 0.2638 -0.5245
vn 0.4595 0.5313 -0.7118
vn -0.3194 -0.0873 0.9436
vn -0.2262 -0.3117 -0.9229
vn -0.2327 -0.2102 -0.9496
vn 0.7461 0.4743 -0.4673
vn 0.1818 0.1284 -0.9749
vn -0.1480 0.5308 -0.8345
vn -0.5586 0.2852 -0.7789
vn -0.9729 -0.2314 0.0000
vn -0.9392 0.3432 0.0000
vn -0.9581 0.2752 0.0788
vn -0.8771 0.3004 0.3747
vn -0.8504 -0.0886 0.5187
vn -0.3613 -0.0025 0.9324
vn 0.5865 0.8083 0.0509
vn 0.9838 0.1575 0.0853
vn 0.9533 0.2606 0.1529
vn 0.2496 -0.5098 0.8233
vn -0.2474 0.5102 -0.8237
vn 0.9243 -0.0359 -0.3800
vn 0.4613 -0.5117 -0.7248
vn 0.7476 -0.5241 -0.4080
vn -0.5512 0.2182 -0.8053
vn -0.9374 -0.1241 -0.3255
vn -0.9482 -0.1161 -0.2956
vn -0.9944 0.0915 0.0528
vn 0.0575 -0.1167 0.9915
vn -0.7306 0.4066 0.5485
vn -0.3479 0.2557 0.9020
vn 0.7217 0.2069 -0.6605
vn 0.9654 -0.1650 0.2022
vn 0.9593 -0.1743 0.2224
vn -0.5871 0.1122 -0.8017
vn -0.5765 -0.2185 -0.7873
vn -0.4827 -0.0174 -0.8756
vn -0.9655 0.1836 0.1847
vn -0.9504 0.2522 0.1818
vn 0.5096 -0.3367 0.7918
vn -0.9863 0.1496 -0.0691
vn -0.9922 -0.1038 -0.0695
vn 0.5336 0.0913 0.8408
vn 0.7619 -0.4499 0.4659
vn 0.8320 0.2212 0.5088
vn 0.3866 0.5006 0.7746
vn 0.9159 -0.0577 0.3972
vn 0.4422 0.8815 0.1659
vn 0.9875 0.0493 0.1496
vn -0.8608 0.3421 0.3767
vn -0.0627 -0.9530 -0.2963
vn -0.2568 -0.8285 -0.4977
vn 0.8702 -0.2584 0.4194
vn -0.9874 0.1514 -0.0463
vn -0.2474 -0.0525 -0.9675
vn 0.9752 0.2070 -0.0782
vn 0.0663 -0.8438 -0.5326
vn -0.0476 0.6062 0.7939
vn 0.8528 -0.2904 -0.4341
vn -0.5043 0.5582 0.6588
vn 0.6330 -0.7072 -0.3148
vn -0.9817 0.1820 -0.0562
vn 0.9149 -0.1711 0.3656
vn -0.5556 -0.4353 0.7084
usemtl Material.002
s off
f 1//1 14//1 13//1
f 2//2 14//2 16//2
f 1//3 13//3 18//3
f 1//4 18//4 20//4
f 1//5 20//5 17//5
f 2//6 16//6 23//6
f 3//7 15//7 25//7
f 4//8 19//8 27//8
f 5//9 21//9 29//9
f 6//10 22//10 31//10
f 2//11 23//11 26//11
f 3//12 25//12 28//12
f 4//13 27//13 30//13
f 5//14 29//14 32//14
f 6//15 31//15 24//15
f 7//16 33//16 38//16
f 8//17 34//17 40//17
f 9//18 35//18 41//18
f 10//19 36//19 42//19
f 11//20 37//20 39//20
f 39//21 42//21 12//21
f 39//22 37//22 42//22
f 37//23 10//23 42//23
f 42//24 41//24 12//24
f 42//25 36//25 41//25
f 36//26 9//26 41//26
f 41//27 40//27 12//27
f 41//28 35//28 40//28
f 35//29 8//29 40//29
f 40//30 38//30 12//30
f 40//31 34//31 38//31
f 34//32 7//32 38//32
f 38//33 39//33 12//33
f 38//34 33//34 39//34
f 33//35 11//35 39//35
f 24//36 37//36 11//36
f 24//37 31//37 37//37
f 31//38 10//38 37//38
f 32//39 36//39 10//39
f 32//40 29//40 36//40
f 29//41 9//41 36//41
f 30//42 35//42 9//42
f 30//43 27//43 35//43
f 27//44 8//44 35//44
f 28//45 34//45 8//45
f 28//46 25//46 34//46
f 25//47 7//47 34//47
f 26//48 33//48 7//48
f 26//49 23//49 33//49
f 23//50 11//50 33//50
f 31//51 32//51 10//51
f 31//52 22//52 32//52
f 22//53 5//53 32//53
f 29//54 30//54 9//54
f 29//55 21//55 30//55
f 21//56 4//56 30//56
f 27//57 28//57 8//57
f 27//58 19//58 28//58
f 19//59 3//59 28//59
f 25//60 26//60 7//60
f 25//61 15//61 26//61
f 15//62 2//62 26//62
f 23//63 24//63 11//63
f 23//64 16//64 24//64
f 16//65 6//65 24//65
f 17//66 22//66 6//66
f 17//67 20//67 22//67
f 20//68 5//68 22//68
f 20//69 21//69 5//69
f 20//70 18//70 21//70
f 18//71 4//71 21//71
f 18//72 19//72 4//72
f 18//73 13//73 19//73
f 13//74 3//74 19//74
f 16//75 17//75 6//75
f 16//76 14//76 17//76
f 14//77 1//77 17//77
f 13//78 15//78 3//78
f 13//79 14//79 15//79
f 14//80 2//80 15//80
o Icosphere
v 0.335657 -0.028560 0.965610
v -0.664338 -0.028561 0.640686
v -0.664338 -0.028561 -0.410764
v 0.335657 -0.028560 -0.735688
v 0.953695 -0.028565 0.114961
v 0.059269 0.524220 0.114961
v 0.747458 0.049956 0.614958
v -0.203600 0.049957 0.923973
v -0.791379 0.049956 0.114961
v -0.203600 0.049957 -0.694050
v 0.747458 0.049956 -0.385036
v 0.221725 0.374874 0.614956
v 0.584999 0.374871 0.114961
v -0.366054 0.374874 0.423973
v -0.366054 0.374874 -0.194050
v 0.221725 0.374874 -0.385034
vn 0.2281 0.6746 0.7020
vn 0.5549 0.7277 0.4031
vn 0.1625 0.8506 0.5000
vn -0.5972 0.6746 0.4339
vn -0.2119 0.7277 0.6523
vn -0.4253 0.8506 0.3090
vn -0.5972 0.6746 -0.4339
vn -0.6858 0.7277 0.0000
vn -0.4253 0.8506 -0.3090
vn 0.2281 0.6746 -0.7020
vn -0.2119 0.7277 -0.6523
vn 0.1625 0.8506 -0.5000
vn 0.7382 0.6746 0.0000
vn 0.5549 0.7277 -0.4031
vn 0.5257 0.8506 0.0000
vn 0.0000 1.0000 0.0000
usemtl Material.001
s 1
f 43//81 49//82 54//83
f 44//84 50//85 56//86
f 45//87 51//88 57//89
f 46//90 52//91 58//92
f 47//93 53//94 55//95
f 55//95 58//92 48//96
f 55//95 53//94 58//92
f 53//94 46//90 58//92
f 58//92 57//89 48//96
f 58//92 52//91 57//89
f 52//91 45//87 57//89
f 57//89 56//86 48//96
f 57//89 51//88 56//86
f 51//88 44//84 56//86
f 56//86 54//83 48//96
f 56//86 50//85 54//83
f 50//85 43//81 54//83
f 54//83 55//95 48//96
f 54//83 49//82 55//95
f 49//82 47//93 55//95
