# Blender v2.78 (sub 0) OBJ File: 'thystame.blend'
# www.blender.org
mtllib thystame.mtl
o Grid
v -0.455241 0.075875 0.705284
v -0.333333 -0.000440 0.710129
v -0.145189 -0.000440 0.777778
v 0.075750 0.064115 0.748667
v -0.555556 -0.000440 0.555556
v -0.198202 0.692887 0.158260
v -0.163319 0.662508 0.153702
v 0.111111 -0.000440 0.555556
v 0.176783 -0.000440 0.555556
v -0.499537 -0.000440 0.333333
v -0.212304 0.689024 0.095145
v -0.201252 0.711391 0.163154
v 0.261042 -0.000440 0.333333
v -0.555556 -0.000440 0.111111
v -0.206795 0.695436 0.076980
v -0.257291 0.689368 0.111062
v 0.333333 -0.000440 0.111111
v -0.657371 -0.000440 -0.111111
v -0.193209 0.683990 0.060353
v -0.188671 0.659909 0.025406
v 0.449284 -0.000440 -0.111111
v -0.555556 -0.000440 -0.333333
v -0.136357 0.675940 -0.021536
v -0.134589 0.689725 -0.016050
v 0.333333 -0.000440 -0.333333
v -0.555556 -0.000440 -0.452862
v -0.466400 -0.000440 -0.555556
v -0.125245 0.655947 -0.028817
v -0.102097 0.639611 -0.026023
v 0.224070 -0.000440 -0.457630
v -0.333333 -0.000440 -0.666047
v -0.041975 0.024855 -0.628822
v 0.111111 -0.000440 -0.627788
v 0.143156 -0.000440 -0.505372
vn -0.4108 0.6947 0.5905
vn -0.1213 0.6562 0.7448
vn 0.4602 0.7116 0.5308
vn -0.9205 0.3647 -0.1402
vn 0.6636 0.5993 0.4477
vn -0.8760 0.4407 0.1958
vn 0.7996 0.6006 -0.0008
vn -0.8376 0.4647 0.2871
vn 0.7065 0.6060 0.3656
vn -0.7061 0.5948 -0.3842
vn 0.7524 0.6507 -0.1030
vn -0.7203 0.6307 -0.2890
vn 0.5451 0.6341 -0.5484
vn -0.1603 0.7132 -0.6823
vn 0.1799 0.6976 -0.6935
vn 0.6718 0.5914 -0.4460
usemtl Material.001
s off
f 1//1 2//1 6//1 5//1
f 2//2 3//2 7//2 6//2
f 3//3 4//3 8//3 7//3
f 5//4 6//4 11//4 10//4
f 8//5 9//5 13//5 12//5
f 10//6 11//6 15//6 14//6
f 12//7 13//7 17//7 16//7
f 14//8 15//8 19//8 18//8
f 16//9 17//9 21//9 20//9
f 18//10 19//10 23//10 22//10
f 20//11 21//11 25//11 24//11
f 22//12 23//12 27//12 26//12
f 24//13 25//13 30//13 29//13
f 27//14 28//14 32//14 31//14
f 28//15 29//15 33//15 32//15
f 29//16 30//16 34//16 33//16
